<?xml version="1.0" encoding="UTF-8" standalone="no"?>
<!-- Created with Inkscape (http://www.inkscape.org/) -->

<svg
   width="512.25769"
   height="512.25769"
   viewBox="0 0 512.25769 512.25769"
   version="1.1"
   id="svg1"
   xmlns="http://www.w3.org/2000/svg"
   xmlns:svg="http://www.w3.org/2000/svg">
  <defs
     id="defs1" />
  <g
     id="layer1"
     transform="translate(0.11099243,0.16852543)">
    <rect
       style="fill:#4b7abd;fill-opacity:1;stroke:none;stroke-width:4.529"
       id="rect1"
       width="512"
       height="512"
       x="9.4823292e-08"
       y="0.056077562"
       ry="72.597641" />
  </g>
  <g
     id="layer2"
     transform="translate(0.11099243,0.16852543)">
    <rect
       style="fill:#d7e3f3;fill-opacity:1;stroke:none;stroke-width:4.15335"
       id="rect2"
       width="11.523458"
       height="512.03497"
       x="80.051697"
       y="0.0079706851"
       ry="0" />
    <rect
       style="fill:#d7e3f2;fill-opacity:1;stroke:none;stroke-width:4.15335"
       id="rect2-8"
       width="11.523458"
       height="512.03497"
       x="424.82614"
       y="0.054205466"
       ry="0" />
    <rect
       style="fill:#d7e3f3;fill-opacity:1;stroke:none;stroke-width:4.15335"
       id="rect2-8-1"
       width="11.523458"
       height="512.03497"
       x="312.34448"
       y="-0.16852543"
       ry="0" />
    <rect
       style="fill:#d7e3f3;fill-opacity:1;stroke:none;stroke-width:4.15335"
       id="rect2-8-2"
       width="11.523458"
       height="512.03497"
       x="197.70306"
       y="0.043930177"
       ry="0" />
    <rect
       style="fill:#d7e3f3;fill-opacity:1;stroke:none;stroke-width:4.15335"
       id="rect2-2"
       width="11.523458"
       height="512.03497"
       x="74.979904"
       y="-511.97025"
       ry="0"
       transform="rotate(90)" />
    <rect
       style="fill:#d7e3f2;fill-opacity:1;stroke:none;stroke-width:4.15335"
       id="rect2-8-3"
       width="11.523458"
       height="512.03497"
       x="419.75433"
       y="-511.92398"
       ry="0"
       transform="rotate(90)" />
    <rect
       style="fill:#d7e3f3;fill-opacity:1;stroke:none;stroke-width:4.15335"
       id="rect2-8-1-2"
       width="11.523458"
       height="512.03497"
       x="307.27267"
       y="-512.14673"
       ry="0"
       transform="rotate(90)" />
    <rect
       style="fill:#d7e3f3;fill-opacity:1;stroke:none;stroke-width:4.15335"
       id="rect2-8-2-2"
       width="11.523458"
       height="512.03497"
       x="192.63127"
       y="-511.9343"
       ry="0"
       transform="rotate(90)" />
  </g>
  <g
     id="layer3"
     style="fill:#ffffff"
     transform="translate(-13.347695,-10.598424)">
    <path
       id="path2"
       style="display:inline;fill:#ffffff;fill-opacity:1;stroke:none;stroke-width:3.20723"
       d="m 161.94183,339.4169 a 53.111524,53.111524 0 0 0 -53.11152,53.11153 53.111524,53.111524 0 0 0 53.11152,53.11152 53.111524,53.111524 0 0 0 53.11153,-53.11152 53.111524,53.111524 0 0 0 -53.11153,-53.11153 z m 0,21.2211 a 31.866914,31.866914 0 0 1 31.86692,31.86692 31.866914,31.866914 0 0 1 -31.86692,31.86691 31.866914,31.866914 0 0 1 -31.86691,-31.86691 31.866914,31.866914 0 0 1 31.86691,-31.86692 z" />
    <path
       id="path2-7"
       style="display:inline;fill:#ffffff;fill-opacity:1;stroke:none;stroke-width:3.20723"
       d="m 232.85092,179.20552 a 53.111524,53.111524 0 0 0 -53.11152,53.11153 53.111524,53.111524 0 0 0 53.11152,53.11152 53.111524,53.111524 0 0 0 53.11153,-53.11152 53.111524,53.111524 0 0 0 -53.11153,-53.11153 z m 0,21.2211 a 31.866914,31.866914 0 0 1 31.86692,31.86692 31.866914,31.866914 0 0 1 -31.86692,31.86691 31.866914,31.866914 0 0 1 -31.86691,-31.86691 31.866914,31.866914 0 0 1 31.86691,-31.86692 z" />
    <path
       id="path2-2"
       style="display:inline;fill:#ffffff;fill-opacity:1;stroke:none;stroke-width:3.20723"
       d="m 397.69309,102.5964 a 53.111524,53.111524 0 0 0 -53.11152,53.11153 53.111524,53.111524 0 0 0 53.11152,53.11152 53.111524,53.111524 0 0 0 53.11153,-53.11152 53.111524,53.111524 0 0 0 -53.11153,-53.11153 z m 0,21.2211 a 31.866914,31.866914 0 0 1 31.86692,31.86692 31.866914,31.866914 0 0 1 -31.86692,31.86691 31.866914,31.866914 0 0 1 -31.86691,-31.86691 31.866914,31.866914 0 0 1 31.86691,-31.86692 z" />
    <rect
       style="fill:#ffffff;fill-opacity:1;stroke:none;stroke-width:4.0715"
       id="rect3"
       width="16.938816"
       height="94.373398"
       x="286.04312"
       y="167.36195"
       transform="rotate(22.371568)" />
    <rect
       style="fill:#ffffff;fill-opacity:1;stroke:none;stroke-width:4.0715"
       id="rect3-3"
       width="16.938816"
       height="94.373398"
       x="277.04474"
       y="-271.03293"
       transform="rotate(69.361687)" />
  </g>
</svg>
