<?xml version="1.0" encoding="UTF-8" standalone="no"?>
<!-- Created with Inkscape (http://www.inkscape.org/) -->

<svg
   width="450.41409"
   height="450.79233"
   viewBox="0 0 450.41409 450.79233"
   version="1.1"
   id="svg1"
   xmlns="http://www.w3.org/2000/svg"
   xmlns:svg="http://www.w3.org/2000/svg">
  <defs
     id="defs1" />
  <g
     id="layer1"
     transform="translate(-30.351379,-28.06558)">
    <rect
       style="display:inline;fill:#4b7abd;fill-opacity:1;stroke-width:0.079"
       id="rect1"
       width="448.58359"
       height="449.48981"
       x="30.811802"
       y="28.999344"
       rx="77.295128"
       ry="70.045288" />
  </g>
  <g
     id="layer2"
     transform="translate(-30.351379,-28.06558)">
    <rect
       style="fill:#d7e3f3;fill-opacity:1;stroke-width:0.0783755"
       id="rect2"
       width="5.437377"
       height="449.54645"
       x="98.779015"
       y="28.999342"
       rx="0.265625"
       ry="0.26144165" />
    <rect
       style="fill:#d7e3f3;fill-opacity:1;stroke-width:0.0783755"
       id="rect2-8"
       width="5.437377"
       height="449.54645"
       x="407.74557"
       y="29.217703"
       rx="0.265625"
       ry="0.26144165" />
    <rect
       style="fill:#d7e3f3;fill-opacity:1;stroke-width:0.0783755"
       id="rect2-1"
       width="5.437377"
       height="449.54645"
       x="190.3777"
       y="28.06558"
       rx="0.265625"
       ry="0.26144165" />
    <rect
       style="fill:#d7e3f3;fill-opacity:1;stroke-width:0.0783755"
       id="rect2-23"
       width="5.437377"
       height="449.54645"
       x="94.742409"
       y="-479.89783"
       rx="0.265625"
       ry="0.26144165"
       transform="rotate(90)" />
    <rect
       style="fill:#d7e3f3;fill-opacity:1;stroke-width:0.0783755"
       id="rect2-85"
       width="5.437377"
       height="449.54645"
       x="405.17322"
       y="-480.30502"
       rx="0.265625"
       ry="0.26144165"
       transform="rotate(90)" />
    <rect
       style="fill:#d7e3f3;fill-opacity:1;stroke-width:0.0783755"
       id="rect2-85-9"
       width="5.437377"
       height="449.54645"
       x="303.78098"
       y="-480.17136"
       rx="0.265625"
       ry="0.26144165"
       transform="rotate(90)" />
    <rect
       style="fill:#d7e3f3;fill-opacity:1;stroke-width:0.0783755"
       id="rect2-85-4"
       width="5.437377"
       height="449.54645"
       x="197.96918"
       y="-480.76547"
       rx="0.265625"
       ry="0.26144165"
       transform="rotate(90)" />
    <rect
       style="fill:#d7e3f3;fill-opacity:1;stroke-width:0.0783755"
       id="rect2-2"
       width="5.437377"
       height="449.54645"
       x="296.0918"
       y="29.311474"
       rx="0.265625"
       ry="0.26144165" />
  </g>
  <g
     id="layer3"
     style="display:inline"
     transform="translate(-30.351379,-28.06558)">
    <text
       xml:space="preserve"
       style="font-size:84.4662px;line-height:0;writing-mode:lr-tb;direction:ltr;fill:#ffffff;fill-opacity:1;stroke-width:0.695342;stroke-dasharray:none"
       x="301.49103"
       y="388.58682"
       id="text2"><tspan
         id="tspan2"
         x="301.49103"
         y="388.58682"
         style="font-style:normal;font-variant:normal;font-weight:normal;font-stretch:normal;font-size:84.4662px;line-height:0;font-family:'DejaVu Sans';-inkscape-font-specification:'DejaVu Sans';fill:#ffffff;stroke-width:0.695342;stroke-dasharray:none">B</tspan></text>
    <text
       xml:space="preserve"
       style="font-size:84.4662px;writing-mode:lr-tb;direction:ltr;fill:#ffffff;fill-opacity:1;stroke-width:0.0238316"
       x="349.43878"
       y="388.22989"
       id="text2-3"><tspan
         id="tspan2-4"
         x="349.43878"
         y="388.22989"
         style="font-style:normal;font-variant:normal;font-weight:normal;font-stretch:normal;font-size:84.4662px;font-family:'DejaVu Sans';-inkscape-font-specification:'DejaVu Sans';fill:#ffffff;stroke-width:0.0238316">S</tspan></text>
  </g>
  <g
     id="layer4"
     transform="translate(-71.975319,59.762064)">
    <path
       id="path1"
       style="fill:#ffffff;stroke-width:2.899"
       d="m 199.87312,231.31566 a 50,50 0 0 0 -50,50 50,50 0 0 0 50,50 50,50 0 0 0 50,-50 50,50 0 0 0 -50,-50 z m 0.22266,19.76758 a 30,30 0 0 1 30,30 30,30 0 0 1 -30,30 30,30 0 0 1 -30,-30 30,30 0 0 1 30,-30 z" />
    <path
       id="path1-8"
       style="fill:#ffffff;stroke-width:2.899"
       d="m 253.69579,84.828966 a 50,50 0 0 0 -50,50.000004 50,50 0 0 0 50,50 50,50 0 0 0 50,-50 50,50 0 0 0 -50,-50.000004 z m 0.22266,19.767584 a 30,30 0 0 1 30,30 30,30 0 0 1 -30,30 30,30 0 0 1 -30,-30 30,30 0 0 1 30,-30 z" />
    <path
       id="path1-1"
       style="fill:#ffffff;stroke-width:2.899"
       d="m 397.61463,0.11203249 a 50,50 0 0 0 -50,49.99999351 50,50 0 0 0 50,50.000004 50,50 0 0 0 50,-50.000004 50,50 0 0 0 -50,-49.99999351 z m 0.22266,19.76757351 a 30,30 0 0 1 30,30 30,30 0 0 1 -30,30 30,30 0 0 1 -30,-30 30,30 0 0 1 30,-30 z" />
    <rect
       style="fill:#ffffff;fill-opacity:1;stroke-width:1.138"
       id="rect3"
       width="68.413536"
       height="14.691108"
       x="-139.55899"
       y="281.11829"
       rx="0"
       ry="0"
       transform="matrix(0.42443429,-0.90545874,0.92479244,0.380472,0,0)" />
    <rect
       style="fill:#ffffff;fill-opacity:1;stroke-width:1.29836"
       id="rect3-2"
       width="88.766724"
       height="14.73842"
       x="184.90865"
       y="235.18289"
       rx="0"
       ry="0"
       transform="rotate(-30.429038)" />
  </g>
</svg>
